<svg xmlns="http://www.w3.org/2000/svg" viewBox="0 -24 100 144" fill="none">
  <defs>
    <radialGradient id="outerF" cx="50%" cy="70%" r="60%">
      <stop offset="0%"  stop-color="#ffcc00"/>
      <stop offset="60%" stop-color="#ffdd00"/>
      <stop offset="100%" stop-color="#ffaa00"/>
    </radialGradient>
    <radialGradient id="innerF" cx="50%" cy="65%" r="55%">
      <stop offset="0%"  stop-color="#ffffff"/>
      <stop offset="50%" stop-color="#ffffff"/>
      <stop offset="100%" stop-color="#ffffff"/>
    </radialGradient>
  </defs>

  <path
    fill="url(#outerF)"
    stroke="#ff0000" stroke-width="5"
    stroke-linejoin="round" stroke-linecap="round"
    paint-order="stroke fill"
    d="M50 110 C27 110 16 94 20 74 C22 56 36 44 48 32 C47 10 38 -4 36 -18 C42 -8 72 14 78 32 C90 44 98 56 94 74 C94 94 73 110 50 110Z">
    <animate attributeName="d"
      dur="0.7s" repeatCount="indefinite"
      calcMode="spline"
      keyTimes="0;0.5;1"
      keySplines="0.45 0 0.55 1;0.45 0 0.55 1"
      values="
        M50 110 C27 110 16 94 20 74 C22 56 36 44 48 32 C47 10 38 -4  36 -18 C42 -8  72 14 78 32 C90 44 98 56 94 74 C94 94 73 110 50 110Z;
        M50 110 C27 110 10 94  8 74 C6  56 14 44 22 32 C24 10 54 -4  60 -18 C62 -8  64 14 62 32 C72 44 82 56 86 74 C86 94 73 110 50 110Z;
        M50 110 C27 110 16 94 20 74 C22 56 36 44 48 32 C47 10 38 -4  36 -18 C42 -8  72 14 78 32 C90 44 98 56 94 74 C94 94 73 110 50 110Z
      "/>
  </path>

  <path
    fill="url(#innerF)"
    d="M50 110 C34 110 26 99 29 85 C30 72 40 64 49 55 C48 40 46 30 50 20 C54 30 65 43 70 55 C78 64 84 72 81 85 C81 99 66 110 50 110Z">
    <animate attributeName="d"
      dur="0.7s" repeatCount="indefinite"
      calcMode="spline"
      keyTimes="0;0.5;1"
      keySplines="0.45 0 0.55 1;0.45 0 0.55 1"
      values="
        M50 110 C34 110 26 99 29 85 C30 72 40 64 49 55 C48 40 46 30 50 20 C54 30 65 43 70 55 C78 64 84 72 81 85 C81 99 66 110 50 110Z;
        M50 110 C34 110 22 99 21 85 C19 72 25 64 30 55 C32 40 46 30 50 20 C54 30 60 43 58 55 C65 64 72 72 75 85 C75 99 66 110 50 110Z;
        M50 110 C34 110 26 99 29 85 C30 72 40 64 49 55 C48 40 46 30 50 20 C54 30 65 43 70 55 C78 64 84 72 81 85 C81 99 66 110 50 110Z
      "/>
  </path>
</svg>
